<?xml version="1.0" encoding="UTF-8" standalone="no"?>
<!DOCTYPE svg PUBLIC "-//W3C//DTD SVG 1.1//EN"
 "http://www.w3.org/Graphics/SVG/1.1/DTD/svg11.dtd">
<!-- Generated by graphviz version 2.34.0 (20131014.1843)
 -->
<!-- Title: inheritance0fbaf5c2af Pages: 1 -->
<svg width="468pt" height="158pt"
 viewBox="0.00 0.00 468.00 158.00" xmlns="http://www.w3.org/2000/svg" xmlns:xlink="http://www.w3.org/1999/xlink">
<g id="graph0" class="graph" transform="scale(1 1) rotate(0) translate(4 154)">
<title>inheritance0fbaf5c2af</title>
<!-- linop.BaseLinearOperator -->
<g id="node1" class="node"><title>linop.BaseLinearOperator</title>
<g id="a_node1"><a xlink:href="#linop.BaseLinearOperator" xlink:title="A linear operator is a linear mapping x &#45;&gt; A(x) such that the size of the">
<path fill="none" stroke="#b3b3b3" d="M315.825,-149.459C315.825,-149.459 170.175,-149.459 170.175,-149.459 166.022,-149.459 161.868,-145.306 161.868,-141.153 161.868,-141.153 161.868,-132.847 161.868,-132.847 161.868,-128.694 166.022,-124.541 170.175,-124.541 170.175,-124.541 315.825,-124.541 315.825,-124.541 319.978,-124.541 324.132,-128.694 324.132,-132.847 324.132,-132.847 324.132,-141.153 324.132,-141.153 324.132,-145.306 319.978,-149.459 315.825,-149.459"/>
<text text-anchor="middle" x="243" y="-133.48" font-family="Vera Sans, DejaVu Sans, Liberation Sans, Arial, Helvetica, sans" font-size="12.00">linop.BaseLinearOperator</text>
</a>
</g>
</g>
<!-- linop.LinearOperator -->
<g id="node3" class="node"><title>linop.LinearOperator</title>
<g id="a_node3"><a xlink:href="#linop.LinearOperator" xlink:title="A linear operator constructed from a `matvec` and (possibly) a">
<path fill="none" stroke="#b3b3b3" d="M302.577,-87.4594C302.577,-87.4594 183.423,-87.4594 183.423,-87.4594 179.269,-87.4594 175.116,-83.3063 175.116,-79.1531 175.116,-79.1531 175.116,-70.8469 175.116,-70.8469 175.116,-66.6937 179.269,-62.5406 183.423,-62.5406 183.423,-62.5406 302.577,-62.5406 302.577,-62.5406 306.731,-62.5406 310.884,-66.6937 310.884,-70.8469 310.884,-70.8469 310.884,-79.1531 310.884,-79.1531 310.884,-83.3063 306.731,-87.4594 302.577,-87.4594"/>
<text text-anchor="middle" x="243" y="-71.4797" font-family="Vera Sans, DejaVu Sans, Liberation Sans, Arial, Helvetica, sans" font-size="12.00">linop.LinearOperator</text>
</a>
</g>
</g>
<!-- linop.BaseLinearOperator&#45;&gt;linop.LinearOperator -->
<g id="edge3" class="edge"><title>linop.BaseLinearOperator&#45;&gt;linop.LinearOperator</title>
<path fill="none" stroke="black" stroke-width="0.5" d="M243,-124.431C243,-115.384 243,-102.685 243,-92.56"/>
<polygon fill="black" stroke="black" points="244.75,-92.5331 243,-87.5331 241.25,-92.5331 244.75,-92.5331"/>
</g>
<!-- linop.DiagonalOperator -->
<g id="node2" class="node"><title>linop.DiagonalOperator</title>
<g id="a_node2"><a xlink:href="#linop.DiagonalOperator" xlink:title="A diagonal linear operator defined by its diagonal `diag` (a Numpy array.)">
<path fill="none" stroke="#b3b3b3" d="M144.034,-25.4594C144.034,-25.4594 7.96609,-25.4594 7.96609,-25.4594 3.81295,-25.4594 -0.340181,-21.3063 -0.340181,-17.1531 -0.340181,-17.1531 -0.340181,-8.84686 -0.340181,-8.84686 -0.340181,-4.69373 3.81295,-0.540592 7.96609,-0.540592 7.96609,-0.540592 144.034,-0.540592 144.034,-0.540592 148.187,-0.540592 152.34,-4.69373 152.34,-8.84686 152.34,-8.84686 152.34,-17.1531 152.34,-17.1531 152.34,-21.3063 148.187,-25.4594 144.034,-25.4594"/>
<text text-anchor="middle" x="76" y="-9.47969" font-family="Vera Sans, DejaVu Sans, Liberation Sans, Arial, Helvetica, sans" font-size="12.00">linop.DiagonalOperator</text>
</a>
</g>
</g>
<!-- linop.LinearOperator&#45;&gt;linop.DiagonalOperator -->
<g id="edge1" class="edge"><title>linop.LinearOperator&#45;&gt;linop.DiagonalOperator</title>
<path fill="none" stroke="black" stroke-width="0.5" d="M210.801,-62.4314C182.846,-52.3878 142.367,-37.8443 113.068,-27.318"/>
<polygon fill="black" stroke="black" points="113.398,-25.5768 108.1,-25.5331 112.214,-28.8707 113.398,-25.5768"/>
</g>
<!-- linop.IdentityOperator -->
<g id="node4" class="node"><title>linop.IdentityOperator</title>
<g id="a_node4"><a xlink:href="#linop.IdentityOperator" xlink:title="A linear operator representing the identity operator of size `nargin`.">
<path fill="none" stroke="#b3b3b3" d="M306.817,-25.4594C306.817,-25.4594 179.183,-25.4594 179.183,-25.4594 175.03,-25.4594 170.877,-21.3063 170.877,-17.1531 170.877,-17.1531 170.877,-8.84686 170.877,-8.84686 170.877,-4.69373 175.03,-0.540592 179.183,-0.540592 179.183,-0.540592 306.817,-0.540592 306.817,-0.540592 310.97,-0.540592 315.123,-4.69373 315.123,-8.84686 315.123,-8.84686 315.123,-17.1531 315.123,-17.1531 315.123,-21.3063 310.97,-25.4594 306.817,-25.4594"/>
<text text-anchor="middle" x="243" y="-9.47969" font-family="Vera Sans, DejaVu Sans, Liberation Sans, Arial, Helvetica, sans" font-size="12.00">linop.IdentityOperator</text>
</a>
</g>
</g>
<!-- linop.LinearOperator&#45;&gt;linop.IdentityOperator -->
<g id="edge2" class="edge"><title>linop.LinearOperator&#45;&gt;linop.IdentityOperator</title>
<path fill="none" stroke="black" stroke-width="0.5" d="M243,-62.4314C243,-53.3839 243,-40.6847 243,-30.56"/>
<polygon fill="black" stroke="black" points="244.75,-30.5331 243,-25.5331 241.25,-30.5331 244.75,-30.5331"/>
</g>
<!-- linop.ZeroOperator -->
<g id="node6" class="node"><title>linop.ZeroOperator</title>
<g id="a_node6"><a xlink:href="#linop.ZeroOperator" xlink:title="The zero linear operator of shape `nargout`&#45;by&#45;`nargin`.">
<path fill="none" stroke="#b3b3b3" d="M452.088,-25.4594C452.088,-25.4594 341.912,-25.4594 341.912,-25.4594 337.758,-25.4594 333.605,-21.3063 333.605,-17.1531 333.605,-17.1531 333.605,-8.84686 333.605,-8.84686 333.605,-4.69373 337.758,-0.540592 341.912,-0.540592 341.912,-0.540592 452.088,-0.540592 452.088,-0.540592 456.242,-0.540592 460.395,-4.69373 460.395,-8.84686 460.395,-8.84686 460.395,-17.1531 460.395,-17.1531 460.395,-21.3063 456.242,-25.4594 452.088,-25.4594"/>
<text text-anchor="middle" x="397" y="-9.47969" font-family="Vera Sans, DejaVu Sans, Liberation Sans, Arial, Helvetica, sans" font-size="12.00">linop.ZeroOperator</text>
</a>
</g>
</g>
<!-- linop.LinearOperator&#45;&gt;linop.ZeroOperator -->
<g id="edge4" class="edge"><title>linop.LinearOperator&#45;&gt;linop.ZeroOperator</title>
<path fill="none" stroke="black" stroke-width="0.5" d="M272.693,-62.4314C298.365,-52.4293 335.491,-37.9644 362.482,-27.4487"/>
<polygon fill="black" stroke="black" points="363.375,-28.9789 367.398,-25.5331 362.104,-25.7177 363.375,-28.9789"/>
</g>
<!-- linop.ShapeError -->
<g id="node5" class="node"><title>linop.ShapeError</title>
<g id="a_node5"><a xlink:href="#linop.ShapeError" xlink:title="Exception raised when defining a linear operator of the wrong shape or">
<path fill="none" stroke="#b3b3b3" d="M447.059,-149.459C447.059,-149.459 350.941,-149.459 350.941,-149.459 346.788,-149.459 342.635,-145.306 342.635,-141.153 342.635,-141.153 342.635,-132.847 342.635,-132.847 342.635,-128.694 346.788,-124.541 350.941,-124.541 350.941,-124.541 447.059,-124.541 447.059,-124.541 451.212,-124.541 455.365,-128.694 455.365,-132.847 455.365,-132.847 455.365,-141.153 455.365,-141.153 455.365,-145.306 451.212,-149.459 447.059,-149.459"/>
<text text-anchor="middle" x="399" y="-133.48" font-family="Vera Sans, DejaVu Sans, Liberation Sans, Arial, Helvetica, sans" font-size="12.00">linop.ShapeError</text>
</a>
</g>
</g>
</g>
</svg>
