<?xml version="1.0" encoding="UTF-8" standalone="no"?>
<!DOCTYPE svg PUBLIC "-//W3C//DTD SVG 1.1//EN"
 "http://www.w3.org/Graphics/SVG/1.1/DTD/svg11.dtd">
<!-- Generated by graphviz version 2.38.0 (20140413.2041)
 -->
<!-- Title: inheritance7e0f4ad8a9 Pages: 1 -->
<svg width="369pt" height="146pt"
 viewBox="0.00 0.00 368.72 146.40" xmlns="http://www.w3.org/2000/svg" xmlns:xlink="http://www.w3.org/1999/xlink">
<g id="graph0" class="graph" transform="scale(1 1) rotate(0) translate(4 142.398)">
<title>inheritance7e0f4ad8a9</title>
<!-- BaseLinearOperator -->
<g id="node1" class="node"><title>BaseLinearOperator</title>
<g id="a_node1"><a xlink:href="#linop.BaseLinearOperator" xlink:title="A linear operator is a linear mapping x &#45;&gt; A(x) such that the size of the">
<path fill="none" stroke="#b3b3b3" d="M249.861,-138.465C249.861,-138.465 135.487,-138.465 135.487,-138.465 131.775,-138.465 128.064,-134.754 128.064,-131.043 128.064,-131.043 128.064,-123.621 128.064,-123.621 128.064,-119.91 131.775,-116.199 135.487,-116.199 135.487,-116.199 249.861,-116.199 249.861,-116.199 253.572,-116.199 257.283,-119.91 257.283,-123.621 257.283,-123.621 257.283,-131.043 257.283,-131.043 257.283,-134.754 253.572,-138.465 249.861,-138.465"/>
<text text-anchor="middle" x="192.674" y="-124.798" font-family="Vera Sans, DejaVu Sans, Liberation Sans, Arial, Helvetica, sans" font-size="12.00">BaseLinearOperator</text>
</a>
</g>
</g>
<!-- LinearOperator -->
<g id="node3" class="node"><title>LinearOperator</title>
<g id="a_node3"><a xlink:href="#linop.LinearOperator" xlink:title="A linear operator constructed from a `matvec` and (possibly) a">
<path fill="none" stroke="#b3b3b3" d="M237.098,-80.3324C237.098,-80.3324 148.25,-80.3324 148.25,-80.3324 144.539,-80.3324 140.828,-76.6214 140.828,-72.9103 140.828,-72.9103 140.828,-65.4881 140.828,-65.4881 140.828,-61.7771 144.539,-58.066 148.25,-58.066 148.25,-58.066 237.098,-58.066 237.098,-58.066 240.809,-58.066 244.52,-61.7771 244.52,-65.4881 244.52,-65.4881 244.52,-72.9103 244.52,-72.9103 244.52,-76.6214 240.809,-80.3324 237.098,-80.3324"/>
<text text-anchor="middle" x="192.674" y="-66.6656" font-family="Vera Sans, DejaVu Sans, Liberation Sans, Arial, Helvetica, sans" font-size="12.00">LinearOperator</text>
</a>
</g>
</g>
<!-- BaseLinearOperator&#45;&gt;LinearOperator -->
<g id="edge3" class="edge"><title>BaseLinearOperator&#45;&gt;LinearOperator</title>
<path fill="none" stroke="black" stroke-width="0.5" d="M192.674,-116.036C192.674,-107.491 192.674,-95.2112 192.674,-85.5123"/>
<polygon fill="black" stroke="black" stroke-width="0.5" points="194.424,-85.4295 192.674,-80.4296 190.924,-85.4296 194.424,-85.4295"/>
</g>
<!-- DiagonalOperator -->
<g id="node2" class="node"><title>DiagonalOperator</title>
<g id="a_node2"><a xlink:href="#linop.DiagonalOperator" xlink:title="A diagonal linear operator defined by its diagonal `diag` (a Numpy array.)">
<path fill="none" stroke="#b3b3b3" d="M112.1,-22.1996C112.1,-22.1996 7.24781,-22.1996 7.24781,-22.1996 3.53674,-22.1996 -0.174336,-18.4885 -0.174336,-14.7775 -0.174336,-14.7775 -0.174336,-7.35534 -0.174336,-7.35534 -0.174336,-3.64426 3.53674,0.0668071 7.24781,0.0668071 7.24781,0.0668071 112.1,0.0668071 112.1,0.0668071 115.811,0.0668071 119.522,-3.64426 119.522,-7.35534 119.522,-7.35534 119.522,-14.7775 119.522,-14.7775 119.522,-18.4885 115.811,-22.1996 112.1,-22.1996"/>
<text text-anchor="middle" x="59.6738" y="-8.53281" font-family="Vera Sans, DejaVu Sans, Liberation Sans, Arial, Helvetica, sans" font-size="12.00">DiagonalOperator</text>
</a>
</g>
</g>
<!-- LinearOperator&#45;&gt;DiagonalOperator -->
<g id="edge1" class="edge"><title>LinearOperator&#45;&gt;DiagonalOperator</title>
<path fill="none" stroke="black" stroke-width="0.5" d="M168.589,-58.034C145.991,-48.4967 112.179,-34.2261 88.2316,-24.1192"/>
<polygon fill="black" stroke="black" stroke-width="0.5" points="88.867,-22.488 83.5799,-22.156 87.506,-25.7126 88.867,-22.488"/>
</g>
<!-- IdentityOperator -->
<g id="node4" class="node"><title>IdentityOperator</title>
<g id="a_node4"><a xlink:href="#linop.IdentityOperator" xlink:title="A linear operator representing the identity operator of size `nargin`.">
<path fill="none" stroke="#b3b3b3" d="M240.877,-22.1996C240.877,-22.1996 144.47,-22.1996 144.47,-22.1996 140.759,-22.1996 137.048,-18.4885 137.048,-14.7775 137.048,-14.7775 137.048,-7.35534 137.048,-7.35534 137.048,-3.64426 140.759,0.0668071 144.47,0.0668071 144.47,0.0668071 240.877,0.0668071 240.877,0.0668071 244.588,0.0668071 248.299,-3.64426 248.299,-7.35534 248.299,-7.35534 248.299,-14.7775 248.299,-14.7775 248.299,-18.4885 244.588,-22.1996 240.877,-22.1996"/>
<text text-anchor="middle" x="192.674" y="-8.53281" font-family="Vera Sans, DejaVu Sans, Liberation Sans, Arial, Helvetica, sans" font-size="12.00">IdentityOperator</text>
</a>
</g>
</g>
<!-- LinearOperator&#45;&gt;IdentityOperator -->
<g id="edge2" class="edge"><title>LinearOperator&#45;&gt;IdentityOperator</title>
<path fill="none" stroke="black" stroke-width="0.5" d="M192.674,-57.9036C192.674,-49.358 192.674,-37.0784 192.674,-27.3794"/>
<polygon fill="black" stroke="black" stroke-width="0.5" points="194.424,-27.2967 192.674,-22.2968 190.924,-27.2968 194.424,-27.2967"/>
</g>
<!-- ZeroOperator -->
<g id="node6" class="node"><title>ZeroOperator</title>
<g id="a_node6"><a xlink:href="#linop.ZeroOperator" xlink:title="The zero linear operator of shape `nargout`&#45;by&#45;`nargin`.">
<path fill="none" stroke="#b3b3b3" d="M353.345,-22.1996C353.345,-22.1996 274.002,-22.1996 274.002,-22.1996 270.291,-22.1996 266.58,-18.4885 266.58,-14.7775 266.58,-14.7775 266.58,-7.35534 266.58,-7.35534 266.58,-3.64426 270.291,0.0668071 274.002,0.0668071 274.002,0.0668071 353.345,0.0668071 353.345,0.0668071 357.057,0.0668071 360.768,-3.64426 360.768,-7.35534 360.768,-7.35534 360.768,-14.7775 360.768,-14.7775 360.768,-18.4885 357.057,-22.1996 353.345,-22.1996"/>
<text text-anchor="middle" x="313.674" y="-8.53281" font-family="Vera Sans, DejaVu Sans, Liberation Sans, Arial, Helvetica, sans" font-size="12.00">ZeroOperator</text>
</a>
</g>
</g>
<!-- LinearOperator&#45;&gt;ZeroOperator -->
<g id="edge4" class="edge"><title>LinearOperator&#45;&gt;ZeroOperator</title>
<path fill="none" stroke="black" stroke-width="0.5" d="M214.586,-58.034C234.973,-48.5761 265.394,-34.4637 287.146,-24.3728"/>
<polygon fill="black" stroke="black" stroke-width="0.5" points="288.125,-25.8477 291.925,-22.156 286.652,-22.6727 288.125,-25.8477"/>
</g>
<!-- ShapeError -->
<g id="node5" class="node"><title>ShapeError</title>
<g id="a_node5"><a xlink:href="#linop.ShapeError" xlink:title="Exception raised when defining a linear operator of the wrong shape or">
<path fill="none" stroke="#b3b3b3" d="M347.133,-138.465C347.133,-138.465 282.214,-138.465 282.214,-138.465 278.503,-138.465 274.792,-134.754 274.792,-131.043 274.792,-131.043 274.792,-123.621 274.792,-123.621 274.792,-119.91 278.503,-116.199 282.214,-116.199 282.214,-116.199 347.133,-116.199 347.133,-116.199 350.845,-116.199 354.556,-119.91 354.556,-123.621 354.556,-123.621 354.556,-131.043 354.556,-131.043 354.556,-134.754 350.845,-138.465 347.133,-138.465"/>
<text text-anchor="middle" x="314.674" y="-124.798" font-family="Vera Sans, DejaVu Sans, Liberation Sans, Arial, Helvetica, sans" font-size="12.00">ShapeError</text>
</a>
</g>
</g>
</g>
</svg>
