<?xml version="1.0" encoding="UTF-8" standalone="no"?>
<!DOCTYPE svg PUBLIC "-//W3C//DTD SVG 1.1//EN"
 "http://www.w3.org/Graphics/SVG/1.1/DTD/svg11.dtd">
<!-- Generated by graphviz version 2.34.0 (20131014.1843)
 -->
<!-- Title: inheritancefdde2a2c1c Pages: 1 -->
<svg width="420pt" height="220pt"
 viewBox="0.00 0.00 420.00 220.00" xmlns="http://www.w3.org/2000/svg" xmlns:xlink="http://www.w3.org/1999/xlink">
<g id="graph0" class="graph" transform="scale(1 1) rotate(0) translate(4 216)">
<title>inheritancefdde2a2c1c</title>
<!-- blkop.BlockDiagonalLinearOperator -->
<g id="node1" class="node"><title>blkop.BlockDiagonalLinearOperator</title>
<g id="a_node1"><a xlink:href="#blkop.BlockDiagonalLinearOperator" xlink:title="A block diagonal linear operator. Each block must be a linear operator.">
<path fill="none" stroke="#b3b3b3" d="M213.602,-87.4594C213.602,-87.4594 8.3983,-87.4594 8.3983,-87.4594 4.24516,-87.4594 0.0920269,-83.3063 0.0920269,-79.1531 0.0920269,-79.1531 0.0920269,-70.8469 0.0920269,-70.8469 0.0920269,-66.6937 4.24516,-62.5406 8.3983,-62.5406 8.3983,-62.5406 213.602,-62.5406 213.602,-62.5406 217.755,-62.5406 221.908,-66.6937 221.908,-70.8469 221.908,-70.8469 221.908,-79.1531 221.908,-79.1531 221.908,-83.3063 217.755,-87.4594 213.602,-87.4594"/>
<text text-anchor="middle" x="111" y="-71.4797" font-family="Vera Sans, DejaVu Sans, Liberation Sans, Arial, Helvetica, sans" font-size="12.00">blkop.BlockDiagonalLinearOperator</text>
</a>
</g>
</g>
<!-- blkop.BlockDiagonalPreconditioner -->
<g id="node3" class="node"><title>blkop.BlockDiagonalPreconditioner</title>
<g id="a_node3"><a xlink:title="An alias for ``BlockDiagonalLinearOperator`` with a ``solve`` method">
<path fill="none" stroke="#b3b3b3" d="M211.988,-25.4594C211.988,-25.4594 10.0121,-25.4594 10.0121,-25.4594 5.85897,-25.4594 1.70583,-21.3063 1.70583,-17.1531 1.70583,-17.1531 1.70583,-8.84686 1.70583,-8.84686 1.70583,-4.69373 5.85897,-0.540592 10.0121,-0.540592 10.0121,-0.540592 211.988,-0.540592 211.988,-0.540592 216.141,-0.540592 220.294,-4.69373 220.294,-8.84686 220.294,-8.84686 220.294,-17.1531 220.294,-17.1531 220.294,-21.3063 216.141,-25.4594 211.988,-25.4594"/>
<text text-anchor="middle" x="111" y="-9.47969" font-family="Vera Sans, DejaVu Sans, Liberation Sans, Arial, Helvetica, sans" font-size="12.00">blkop.BlockDiagonalPreconditioner</text>
</a>
</g>
</g>
<!-- blkop.BlockDiagonalLinearOperator&#45;&gt;blkop.BlockDiagonalPreconditioner -->
<g id="edge2" class="edge"><title>blkop.BlockDiagonalLinearOperator&#45;&gt;blkop.BlockDiagonalPreconditioner</title>
<path fill="none" stroke="black" stroke-width="0.5" d="M111,-62.4314C111,-53.3839 111,-40.6847 111,-30.56"/>
<polygon fill="black" stroke="black" points="112.75,-30.5331 111,-25.5331 109.25,-30.5331 112.75,-30.5331"/>
</g>
<!-- linop.LinearOperator -->
<g id="node2" class="node"><title>linop.LinearOperator</title>
<g id="a_node2"><a xlink:title="A linear operator constructed from a `matvec` and (possibly) a">
<path fill="none" stroke="#b3b3b3" d="M277.577,-149.459C277.577,-149.459 158.423,-149.459 158.423,-149.459 154.269,-149.459 150.116,-145.306 150.116,-141.153 150.116,-141.153 150.116,-132.847 150.116,-132.847 150.116,-128.694 154.269,-124.541 158.423,-124.541 158.423,-124.541 277.577,-124.541 277.577,-124.541 281.731,-124.541 285.884,-128.694 285.884,-132.847 285.884,-132.847 285.884,-141.153 285.884,-141.153 285.884,-145.306 281.731,-149.459 277.577,-149.459"/>
<text text-anchor="middle" x="218" y="-133.48" font-family="Vera Sans, DejaVu Sans, Liberation Sans, Arial, Helvetica, sans" font-size="12.00">linop.LinearOperator</text>
</a>
</g>
</g>
<!-- linop.LinearOperator&#45;&gt;blkop.BlockDiagonalLinearOperator -->
<g id="edge1" class="edge"><title>linop.LinearOperator&#45;&gt;blkop.BlockDiagonalLinearOperator</title>
<path fill="none" stroke="black" stroke-width="0.5" d="M197.369,-124.431C179.902,-114.637 154.803,-100.563 136.16,-90.1082"/>
<polygon fill="black" stroke="black" points="136.784,-88.4522 131.567,-87.5331 135.073,-91.505 136.784,-88.4522"/>
</g>
<!-- blkop.BlockLinearOperator -->
<g id="node4" class="node"><title>blkop.BlockLinearOperator</title>
<g id="a_node4"><a xlink:href="#blkop.BlockLinearOperator" xlink:title="A linear operator defined by blocks. Each block must be a linear operator.">
<path fill="none" stroke="#b3b3b3" d="M402.991,-87.4594C402.991,-87.4594 249.009,-87.4594 249.009,-87.4594 244.856,-87.4594 240.703,-83.3063 240.703,-79.1531 240.703,-79.1531 240.703,-70.8469 240.703,-70.8469 240.703,-66.6937 244.856,-62.5406 249.009,-62.5406 249.009,-62.5406 402.991,-62.5406 402.991,-62.5406 407.144,-62.5406 411.297,-66.6937 411.297,-70.8469 411.297,-70.8469 411.297,-79.1531 411.297,-79.1531 411.297,-83.3063 407.144,-87.4594 402.991,-87.4594"/>
<text text-anchor="middle" x="326" y="-71.4797" font-family="Vera Sans, DejaVu Sans, Liberation Sans, Arial, Helvetica, sans" font-size="12.00">blkop.BlockLinearOperator</text>
</a>
</g>
</g>
<!-- linop.LinearOperator&#45;&gt;blkop.BlockLinearOperator -->
<g id="edge3" class="edge"><title>linop.LinearOperator&#45;&gt;blkop.BlockLinearOperator</title>
<path fill="none" stroke="black" stroke-width="0.5" d="M238.823,-124.431C256.454,-114.637 281.787,-100.563 300.605,-90.1082"/>
<polygon fill="black" stroke="black" points="301.72,-91.4911 305.24,-87.5331 300.02,-88.4316 301.72,-91.4911"/>
</g>
<!-- blkop.BlockPreconditioner -->
<g id="node5" class="node"><title>blkop.BlockPreconditioner</title>
<g id="a_node5"><a xlink:title="An alias for ``BlockLinearOperator`` with a ``solve`` method equivalent to">
<path fill="none" stroke="#b3b3b3" d="M401.877,-25.4594C401.877,-25.4594 250.123,-25.4594 250.123,-25.4594 245.97,-25.4594 241.817,-21.3063 241.817,-17.1531 241.817,-17.1531 241.817,-8.84686 241.817,-8.84686 241.817,-4.69373 245.97,-0.540592 250.123,-0.540592 250.123,-0.540592 401.877,-0.540592 401.877,-0.540592 406.03,-0.540592 410.183,-4.69373 410.183,-8.84686 410.183,-8.84686 410.183,-17.1531 410.183,-17.1531 410.183,-21.3063 406.03,-25.4594 401.877,-25.4594"/>
<text text-anchor="middle" x="326" y="-9.47969" font-family="Vera Sans, DejaVu Sans, Liberation Sans, Arial, Helvetica, sans" font-size="12.00">blkop.BlockPreconditioner</text>
</a>
</g>
</g>
<!-- blkop.BlockLinearOperator&#45;&gt;blkop.BlockPreconditioner -->
<g id="edge4" class="edge"><title>blkop.BlockLinearOperator&#45;&gt;blkop.BlockPreconditioner</title>
<path fill="none" stroke="black" stroke-width="0.5" d="M326,-62.4314C326,-53.3839 326,-40.6847 326,-30.56"/>
<polygon fill="black" stroke="black" points="327.75,-30.5331 326,-25.5331 324.25,-30.5331 327.75,-30.5331"/>
</g>
<!-- linop.BaseLinearOperator -->
<g id="node6" class="node"><title>linop.BaseLinearOperator</title>
<g id="a_node6"><a xlink:title="A linear operator is a linear mapping x &#45;&gt; A(x) such that the size of the">
<path fill="none" stroke="#b3b3b3" d="M290.825,-211.459C290.825,-211.459 145.175,-211.459 145.175,-211.459 141.022,-211.459 136.868,-207.306 136.868,-203.153 136.868,-203.153 136.868,-194.847 136.868,-194.847 136.868,-190.694 141.022,-186.541 145.175,-186.541 145.175,-186.541 290.825,-186.541 290.825,-186.541 294.978,-186.541 299.132,-190.694 299.132,-194.847 299.132,-194.847 299.132,-203.153 299.132,-203.153 299.132,-207.306 294.978,-211.459 290.825,-211.459"/>
<text text-anchor="middle" x="218" y="-195.48" font-family="Vera Sans, DejaVu Sans, Liberation Sans, Arial, Helvetica, sans" font-size="12.00">linop.BaseLinearOperator</text>
</a>
</g>
</g>
<!-- linop.BaseLinearOperator&#45;&gt;linop.LinearOperator -->
<g id="edge5" class="edge"><title>linop.BaseLinearOperator&#45;&gt;linop.LinearOperator</title>
<path fill="none" stroke="black" stroke-width="0.5" d="M218,-186.431C218,-177.384 218,-164.685 218,-154.56"/>
<polygon fill="black" stroke="black" points="219.75,-154.533 218,-149.533 216.25,-154.533 219.75,-154.533"/>
</g>
</g>
</svg>
