<?xml version="1.0" encoding="UTF-8" standalone="no"?>
<!DOCTYPE svg PUBLIC "-//W3C//DTD SVG 1.1//EN"
 "http://www.w3.org/Graphics/SVG/1.1/DTD/svg11.dtd">
<!-- Generated by graphviz version 2.38.0 (20140413.2041)
 -->
<!-- Title: inheritancefdde2a2c1c Pages: 1 -->
<svg width="420pt" height="205pt"
 viewBox="0.00 0.00 419.57 204.53" xmlns="http://www.w3.org/2000/svg" xmlns:xlink="http://www.w3.org/1999/xlink">
<g id="graph0" class="graph" transform="scale(1 1) rotate(0) translate(4 200.531)">
<title>inheritancefdde2a2c1c</title>
<!-- blkop.BlockDiagonalLinearOperator -->
<g id="node1" class="node"><title>blkop.BlockDiagonalLinearOperator</title>
<g id="a_node1"><a xlink:href="#blkop.BlockDiagonalLinearOperator" xlink:title="A block diagonal linear operator. Each block must be a linear operator.">
<path fill="none" stroke="#b3b3b3" d="M215.041,-80.3324C215.041,-80.3324 7.26763,-80.3324 7.26763,-80.3324 3.55656,-80.3324 -0.154511,-76.6214 -0.154511,-72.9103 -0.154511,-72.9103 -0.154511,-65.4881 -0.154511,-65.4881 -0.154511,-61.7771 3.55656,-58.066 7.26763,-58.066 7.26763,-58.066 215.041,-58.066 215.041,-58.066 218.752,-58.066 222.463,-61.7771 222.463,-65.4881 222.463,-65.4881 222.463,-72.9103 222.463,-72.9103 222.463,-76.6214 218.752,-80.3324 215.041,-80.3324"/>
<text text-anchor="middle" x="111.154" y="-66.6656" font-family="Vera Sans, DejaVu Sans, Liberation Sans, Arial, Helvetica, sans" font-size="12.00">blkop.BlockDiagonalLinearOperator</text>
</a>
</g>
</g>
<!-- blkop.BlockDiagonalPreconditioner -->
<g id="node3" class="node"><title>blkop.BlockDiagonalPreconditioner</title>
<g id="a_node3"><a xlink:title="An alias for ``BlockDiagonalLinearOperator`` with a ``solve`` method">
<path fill="none" stroke="#b3b3b3" d="M213.281,-22.1996C213.281,-22.1996 9.02715,-22.1996 9.02715,-22.1996 5.31608,-22.1996 1.60501,-18.4885 1.60501,-14.7775 1.60501,-14.7775 1.60501,-7.35534 1.60501,-7.35534 1.60501,-3.64426 5.31608,0.0668071 9.02715,0.0668071 9.02715,0.0668071 213.281,0.0668071 213.281,0.0668071 216.993,0.0668071 220.704,-3.64426 220.704,-7.35534 220.704,-7.35534 220.704,-14.7775 220.704,-14.7775 220.704,-18.4885 216.993,-22.1996 213.281,-22.1996"/>
<text text-anchor="middle" x="111.154" y="-8.53281" font-family="Vera Sans, DejaVu Sans, Liberation Sans, Arial, Helvetica, sans" font-size="12.00">blkop.BlockDiagonalPreconditioner</text>
</a>
</g>
</g>
<!-- blkop.BlockDiagonalLinearOperator&#45;&gt;blkop.BlockDiagonalPreconditioner -->
<g id="edge2" class="edge"><title>blkop.BlockDiagonalLinearOperator&#45;&gt;blkop.BlockDiagonalPreconditioner</title>
<path fill="none" stroke="black" stroke-width="0.5" d="M111.154,-57.9036C111.154,-49.358 111.154,-37.0784 111.154,-27.3794"/>
<polygon fill="black" stroke="black" stroke-width="0.5" points="112.904,-27.2967 111.154,-22.2968 109.404,-27.2968 112.904,-27.2967"/>
</g>
<!-- linop.LinearOperator -->
<g id="node2" class="node"><title>linop.LinearOperator</title>
<g id="a_node2"><a xlink:title="A linear operator constructed from a `matvec` and (possibly) a">
<path fill="none" stroke="#b3b3b3" d="M279.184,-138.465C279.184,-138.465 157.125,-138.465 157.125,-138.465 153.413,-138.465 149.702,-134.754 149.702,-131.043 149.702,-131.043 149.702,-123.621 149.702,-123.621 149.702,-119.91 153.413,-116.199 157.125,-116.199 157.125,-116.199 279.184,-116.199 279.184,-116.199 282.895,-116.199 286.606,-119.91 286.606,-123.621 286.606,-123.621 286.606,-131.043 286.606,-131.043 286.606,-134.754 282.895,-138.465 279.184,-138.465"/>
<text text-anchor="middle" x="218.154" y="-124.798" font-family="Vera Sans, DejaVu Sans, Liberation Sans, Arial, Helvetica, sans" font-size="12.00">linop.LinearOperator</text>
</a>
</g>
</g>
<!-- linop.LinearOperator&#45;&gt;blkop.BlockDiagonalLinearOperator -->
<g id="edge1" class="edge"><title>linop.LinearOperator&#45;&gt;blkop.BlockDiagonalLinearOperator</title>
<path fill="none" stroke="black" stroke-width="0.5" d="M198.529,-116.036C180.731,-106.7 154.436,-92.9052 135.344,-82.8895"/>
<polygon fill="black" stroke="black" stroke-width="0.5" points="135.896,-81.2027 130.655,-80.4296 134.27,-84.3021 135.896,-81.2027"/>
</g>
<!-- blkop.BlockLinearOperator -->
<g id="node4" class="node"><title>blkop.BlockLinearOperator</title>
<g id="a_node4"><a xlink:href="#blkop.BlockLinearOperator" xlink:title="A linear operator defined by blocks. Each block must be a linear operator.">
<path fill="none" stroke="#b3b3b3" d="M404.06,-80.3324C404.06,-80.3324 248.248,-80.3324 248.248,-80.3324 244.537,-80.3324 240.826,-76.6214 240.826,-72.9103 240.826,-72.9103 240.826,-65.4881 240.826,-65.4881 240.826,-61.7771 244.537,-58.066 248.248,-58.066 248.248,-58.066 404.06,-58.066 404.06,-58.066 407.771,-58.066 411.483,-61.7771 411.483,-65.4881 411.483,-65.4881 411.483,-72.9103 411.483,-72.9103 411.483,-76.6214 407.771,-80.3324 404.06,-80.3324"/>
<text text-anchor="middle" x="326.154" y="-66.6656" font-family="Vera Sans, DejaVu Sans, Liberation Sans, Arial, Helvetica, sans" font-size="12.00">blkop.BlockLinearOperator</text>
</a>
</g>
</g>
<!-- linop.LinearOperator&#45;&gt;blkop.BlockLinearOperator -->
<g id="edge3" class="edge"><title>linop.LinearOperator&#45;&gt;blkop.BlockLinearOperator</title>
<path fill="none" stroke="black" stroke-width="0.5" d="M237.712,-116.167C255.756,-106.788 282.606,-92.8333 301.986,-82.7608"/>
<polygon fill="black" stroke="black" stroke-width="0.5" points="303.112,-84.1476 306.742,-80.2888 301.498,-81.042 303.112,-84.1476"/>
</g>
<!-- blkop.BlockPreconditioner -->
<g id="node5" class="node"><title>blkop.BlockPreconditioner</title>
<g id="a_node5"><a xlink:title="An alias for ``BlockLinearOperator`` with a ``solve`` method equivalent to">
<path fill="none" stroke="#b3b3b3" d="M402.801,-22.1996C402.801,-22.1996 249.508,-22.1996 249.508,-22.1996 245.797,-22.1996 242.086,-18.4885 242.086,-14.7775 242.086,-14.7775 242.086,-7.35534 242.086,-7.35534 242.086,-3.64426 245.797,0.0668071 249.508,0.0668071 249.508,0.0668071 402.801,0.0668071 402.801,0.0668071 406.512,0.0668071 410.223,-3.64426 410.223,-7.35534 410.223,-7.35534 410.223,-14.7775 410.223,-14.7775 410.223,-18.4885 406.512,-22.1996 402.801,-22.1996"/>
<text text-anchor="middle" x="326.154" y="-8.53281" font-family="Vera Sans, DejaVu Sans, Liberation Sans, Arial, Helvetica, sans" font-size="12.00">blkop.BlockPreconditioner</text>
</a>
</g>
</g>
<!-- blkop.BlockLinearOperator&#45;&gt;blkop.BlockPreconditioner -->
<g id="edge4" class="edge"><title>blkop.BlockLinearOperator&#45;&gt;blkop.BlockPreconditioner</title>
<path fill="none" stroke="black" stroke-width="0.5" d="M326.154,-57.9036C326.154,-49.358 326.154,-37.0784 326.154,-27.3794"/>
<polygon fill="black" stroke="black" stroke-width="0.5" points="327.904,-27.2967 326.154,-22.2968 324.404,-27.2968 327.904,-27.2967"/>
</g>
<!-- linop.BaseLinearOperator -->
<g id="node6" class="node"><title>linop.BaseLinearOperator</title>
<g id="a_node6"><a xlink:title="A linear operator is a linear mapping x &#45;&gt; A(x) such that the size of the">
<path fill="none" stroke="#b3b3b3" d="M291.947,-196.598C291.947,-196.598 144.361,-196.598 144.361,-196.598 140.65,-196.598 136.939,-192.887 136.939,-189.176 136.939,-189.176 136.939,-181.754 136.939,-181.754 136.939,-178.043 140.65,-174.332 144.361,-174.332 144.361,-174.332 291.947,-174.332 291.947,-174.332 295.658,-174.332 299.369,-178.043 299.369,-181.754 299.369,-181.754 299.369,-189.176 299.369,-189.176 299.369,-192.887 295.658,-196.598 291.947,-196.598"/>
<text text-anchor="middle" x="218.154" y="-182.931" font-family="Vera Sans, DejaVu Sans, Liberation Sans, Arial, Helvetica, sans" font-size="12.00">linop.BaseLinearOperator</text>
</a>
</g>
</g>
<!-- linop.BaseLinearOperator&#45;&gt;linop.LinearOperator -->
<g id="edge5" class="edge"><title>linop.BaseLinearOperator&#45;&gt;linop.LinearOperator</title>
<path fill="none" stroke="black" stroke-width="0.5" d="M218.154,-174.169C218.154,-165.624 218.154,-153.344 218.154,-143.645"/>
<polygon fill="black" stroke="black" stroke-width="0.5" points="219.904,-143.562 218.154,-138.562 216.404,-143.562 219.904,-143.562"/>
</g>
</g>
</svg>
