<?xml version="1.0" encoding="UTF-8" standalone="no"?>
<!DOCTYPE svg PUBLIC "-//W3C//DTD SVG 1.1//EN"
 "http://www.w3.org/Graphics/SVG/1.1/DTD/svg11.dtd">
<!-- Generated by graphviz version 2.34.0 (20131014.1843)
 -->
<!-- Title: inheritance7e0f4ad8a9 Pages: 1 -->
<svg width="369pt" height="158pt"
 viewBox="0.00 0.00 369.00 158.00" xmlns="http://www.w3.org/2000/svg" xmlns:xlink="http://www.w3.org/1999/xlink">
<g id="graph0" class="graph" transform="scale(1 1) rotate(0) translate(4 154)">
<title>inheritance7e0f4ad8a9</title>
<!-- BaseLinearOperator -->
<g id="node1" class="node"><title>BaseLinearOperator</title>
<g id="a_node1"><a xlink:href="#linop.BaseLinearOperator" xlink:title="A linear operator is a linear mapping x &#45;&gt; A(x) such that the size of the">
<path fill="none" stroke="#b3b3b3" d="M248.997,-149.459C248.997,-149.459 137.003,-149.459 137.003,-149.459 132.85,-149.459 128.697,-145.306 128.697,-141.153 128.697,-141.153 128.697,-132.847 128.697,-132.847 128.697,-128.694 132.85,-124.541 137.003,-124.541 137.003,-124.541 248.997,-124.541 248.997,-124.541 253.15,-124.541 257.303,-128.694 257.303,-132.847 257.303,-132.847 257.303,-141.153 257.303,-141.153 257.303,-145.306 253.15,-149.459 248.997,-149.459"/>
<text text-anchor="middle" x="193" y="-133.48" font-family="Vera Sans, DejaVu Sans, Liberation Sans, Arial, Helvetica, sans" font-size="12.00">BaseLinearOperator</text>
</a>
</g>
</g>
<!-- LinearOperator -->
<g id="node3" class="node"><title>LinearOperator</title>
<g id="a_node3"><a xlink:href="#linop.LinearOperator" xlink:title="A linear operator constructed from a `matvec` and (possibly) a">
<path fill="none" stroke="#b3b3b3" d="M236.246,-87.4594C236.246,-87.4594 149.754,-87.4594 149.754,-87.4594 145.6,-87.4594 141.447,-83.3063 141.447,-79.1531 141.447,-79.1531 141.447,-70.8469 141.447,-70.8469 141.447,-66.6937 145.6,-62.5406 149.754,-62.5406 149.754,-62.5406 236.246,-62.5406 236.246,-62.5406 240.4,-62.5406 244.553,-66.6937 244.553,-70.8469 244.553,-70.8469 244.553,-79.1531 244.553,-79.1531 244.553,-83.3063 240.4,-87.4594 236.246,-87.4594"/>
<text text-anchor="middle" x="193" y="-71.4797" font-family="Vera Sans, DejaVu Sans, Liberation Sans, Arial, Helvetica, sans" font-size="12.00">LinearOperator</text>
</a>
</g>
</g>
<!-- BaseLinearOperator&#45;&gt;LinearOperator -->
<g id="edge3" class="edge"><title>BaseLinearOperator&#45;&gt;LinearOperator</title>
<path fill="none" stroke="black" stroke-width="0.5" d="M193,-124.431C193,-115.384 193,-102.685 193,-92.56"/>
<polygon fill="black" stroke="black" points="194.75,-92.5331 193,-87.5331 191.25,-92.5331 194.75,-92.5331"/>
</g>
<!-- DiagonalOperator -->
<g id="node2" class="node"><title>DiagonalOperator</title>
<g id="a_node2"><a xlink:href="#linop.DiagonalOperator" xlink:title="A diagonal linear operator defined by its diagonal `diag` (a Numpy array.)">
<path fill="none" stroke="#b3b3b3" d="M110.204,-25.4594C110.204,-25.4594 7.79601,-25.4594 7.79601,-25.4594 3.64287,-25.4594 -0.510266,-21.3063 -0.510266,-17.1531 -0.510266,-17.1531 -0.510266,-8.84686 -0.510266,-8.84686 -0.510266,-4.69373 3.64287,-0.540592 7.79601,-0.540592 7.79601,-0.540592 110.204,-0.540592 110.204,-0.540592 114.357,-0.540592 118.51,-4.69373 118.51,-8.84686 118.51,-8.84686 118.51,-17.1531 118.51,-17.1531 118.51,-21.3063 114.357,-25.4594 110.204,-25.4594"/>
<text text-anchor="middle" x="59" y="-9.47969" font-family="Vera Sans, DejaVu Sans, Liberation Sans, Arial, Helvetica, sans" font-size="12.00">DiagonalOperator</text>
</a>
</g>
</g>
<!-- LinearOperator&#45;&gt;DiagonalOperator -->
<g id="edge1" class="edge"><title>LinearOperator&#45;&gt;DiagonalOperator</title>
<path fill="none" stroke="black" stroke-width="0.5" d="M167.163,-62.4314C144.918,-52.4708 112.788,-38.0843 89.3282,-27.5798"/>
<polygon fill="black" stroke="black" points="90.0358,-25.9793 84.7572,-25.5331 88.6055,-29.1737 90.0358,-25.9793"/>
</g>
<!-- IdentityOperator -->
<g id="node4" class="node"><title>IdentityOperator</title>
<g id="a_node4"><a xlink:href="#linop.IdentityOperator" xlink:title="A linear operator representing the identity operator of size `nargin`.">
<path fill="none" stroke="#b3b3b3" d="M239.989,-25.4594C239.989,-25.4594 146.011,-25.4594 146.011,-25.4594 141.858,-25.4594 137.705,-21.3063 137.705,-17.1531 137.705,-17.1531 137.705,-8.84686 137.705,-8.84686 137.705,-4.69373 141.858,-0.540592 146.011,-0.540592 146.011,-0.540592 239.989,-0.540592 239.989,-0.540592 244.142,-0.540592 248.295,-4.69373 248.295,-8.84686 248.295,-8.84686 248.295,-17.1531 248.295,-17.1531 248.295,-21.3063 244.142,-25.4594 239.989,-25.4594"/>
<text text-anchor="middle" x="193" y="-9.47969" font-family="Vera Sans, DejaVu Sans, Liberation Sans, Arial, Helvetica, sans" font-size="12.00">IdentityOperator</text>
</a>
</g>
</g>
<!-- LinearOperator&#45;&gt;IdentityOperator -->
<g id="edge2" class="edge"><title>LinearOperator&#45;&gt;IdentityOperator</title>
<path fill="none" stroke="black" stroke-width="0.5" d="M193,-62.4314C193,-53.3839 193,-40.6847 193,-30.56"/>
<polygon fill="black" stroke="black" points="194.75,-30.5331 193,-25.5331 191.25,-30.5331 194.75,-30.5331"/>
</g>
<!-- ZeroOperator -->
<g id="node6" class="node"><title>ZeroOperator</title>
<g id="a_node6"><a xlink:href="#linop.ZeroOperator" xlink:title="The zero linear operator of shape `nargout`&#45;by&#45;`nargin`.">
<path fill="none" stroke="#b3b3b3" d="M352.76,-25.4594C352.76,-25.4594 275.24,-25.4594 275.24,-25.4594 271.087,-25.4594 266.934,-21.3063 266.934,-17.1531 266.934,-17.1531 266.934,-8.84686 266.934,-8.84686 266.934,-4.69373 271.087,-0.540592 275.24,-0.540592 275.24,-0.540592 352.76,-0.540592 352.76,-0.540592 356.913,-0.540592 361.066,-4.69373 361.066,-8.84686 361.066,-8.84686 361.066,-17.1531 361.066,-17.1531 361.066,-21.3063 356.913,-25.4594 352.76,-25.4594"/>
<text text-anchor="middle" x="314" y="-9.47969" font-family="Vera Sans, DejaVu Sans, Liberation Sans, Arial, Helvetica, sans" font-size="12.00">ZeroOperator</text>
</a>
</g>
</g>
<!-- LinearOperator&#45;&gt;ZeroOperator -->
<g id="edge4" class="edge"><title>LinearOperator&#45;&gt;ZeroOperator</title>
<path fill="none" stroke="black" stroke-width="0.5" d="M216.33,-62.4314C236.25,-52.5538 264.947,-38.3238 286.083,-27.8432"/>
<polygon fill="black" stroke="black" points="287.04,-29.3222 290.742,-25.5331 285.485,-26.1866 287.04,-29.3222"/>
</g>
<!-- ShapeError -->
<g id="node5" class="node"><title>ShapeError</title>
<g id="a_node5"><a xlink:href="#linop.ShapeError" xlink:title="Exception raised when defining a linear operator of the wrong shape or">
<path fill="none" stroke="#b3b3b3" d="M347.229,-149.459C347.229,-149.459 284.771,-149.459 284.771,-149.459 280.618,-149.459 276.465,-145.306 276.465,-141.153 276.465,-141.153 276.465,-132.847 276.465,-132.847 276.465,-128.694 280.618,-124.541 284.771,-124.541 284.771,-124.541 347.229,-124.541 347.229,-124.541 351.382,-124.541 355.535,-128.694 355.535,-132.847 355.535,-132.847 355.535,-141.153 355.535,-141.153 355.535,-145.306 351.382,-149.459 347.229,-149.459"/>
<text text-anchor="middle" x="316" y="-133.48" font-family="Vera Sans, DejaVu Sans, Liberation Sans, Arial, Helvetica, sans" font-size="12.00">ShapeError</text>
</a>
</g>
</g>
</g>
</svg>
